<svg height="512" viewBox="0 0 128 128" width="512" xmlns="http://www.w3.org/2000/svg"><g id="Circle_Grid" data-name="Circle Grid"><circle cx="64" cy="64" fill="#2cbfae" r="64"/></g><g id="icon"><path d="m105 56.019v45.819h-81.982l29.24-23.089-29.258-22.73 41-35.857z" fill="#eab54e"/><path d="m30.908 28.632h65.735v54.379h-65.735z" fill="#eeefee"/><path d="m75.742 78.749 29.24 23.089h.018v-45.819z" fill="#f6c863"/><path d="m52.258 78.749-29.24 23.089h-.018v-45.819z" fill="#f6c863"/><path d="m104.982 101.838h-81.964l29.239-23.089h23.486z" fill="#eab54e"/><path d="m80.25 55.606v-4.428l-3.6-.531a12.9 12.9 0 0 0 -1.77-4.247l2.174-2.922-3.132-3.132-2.93 2.165a12.863 12.863 0 0 0 -4.243-1.763l-.539-3.6h-4.428l-.531 3.6a12.9 12.9 0 0 0 -4.251 1.759l-2.922-2.165-3.132 3.132 2.166 2.926a12.862 12.862 0 0 0 -1.763 4.251l-3.6.531v4.428l3.6.539a12.82 12.82 0 0 0 1.763 4.243l-2.166 2.93 3.132 3.132 2.922-2.178a12.9 12.9 0 0 0 4.251 1.771l.531 3.6h4.428l.539-3.6a12.857 12.857 0 0 0 4.243-1.771l2.93 2.174 3.132-3.132-2.174-2.93a12.857 12.857 0 0 0 1.771-4.243zm-16.25 4.943a7.153 7.153 0 1 1 7.157-7.157 7.152 7.152 0 0 1 -7.157 7.157z" fill="#62667c"/></g></svg>